<svg width="32" height="32" viewBox="0 0 32 32" fill="none" xmlns="http://www.w3.org/2000/svg">
<g clip-path="url(#clip0_1107_417)">
<path d="M31.9832 16.2994C31.9832 14.9883 31.8744 14.0316 31.6388 13.0395H16.3188V18.9568H25.3113C25.1301 20.4274 24.151 22.642 21.9754 24.1301L21.9449 24.3282L26.7888 27.9951L27.1244 28.0279C30.2064 25.2463 31.9832 21.1537 31.9832 16.2994Z" fill="#4285F4"/>
<path d="M16.3188 31.8901C20.7244 31.8901 24.4228 30.4727 27.1243 28.0279L21.9754 24.1301C20.5975 25.0691 18.7482 25.7246 16.3188 25.7246C12.0039 25.7246 8.34163 22.9432 7.03614 19.0986L6.84479 19.1145L1.80806 22.9236L1.74219 23.1025C4.42541 28.3112 9.93697 31.8901 16.3188 31.8901Z" fill="#34A853"/>
<path d="M7.03586 19.0986C6.6914 18.1065 6.49205 17.0434 6.49205 15.945C6.49205 14.8465 6.6914 13.7836 7.01774 12.7915L7.00862 12.5802L1.90877 8.70987L1.74191 8.78743C0.636024 10.9489 0.00146484 13.3761 0.00146484 15.945C0.00146484 18.514 0.636024 20.9411 1.74191 23.1025L7.03586 19.0986Z" fill="#FBBC05"/>
<path d="M16.3188 6.16537C19.3827 6.16537 21.4495 7.45869 22.628 8.53948L27.2331 4.14571C24.4048 1.57679 20.7244 0 16.3188 0C9.93697 0 4.42541 3.57875 1.74219 8.78742L7.01802 12.7915C8.34163 8.94693 12.0039 6.16537 16.3188 6.16537Z" fill="#EB4335"/>
</g>
<defs>
<clipPath id="clip0_1107_417">
<rect width="32" height="32" fill="white"/>
</clipPath>
</defs>
</svg>
